<svg xmlns="http://www.w3.org/2000/svg" xmlns:xlink="http://www.w3.org/1999/xlink" viewBox="0 0 293.53 76.22"><defs><style>.cls-1{fill:none;}.cls-2{fill:#45cccf;}.cls-3{fill:#054599;}.cls-4{clip-path:url(#clip-path);}</style><clipPath id="clip-path" transform="translate(-274.18 -232.79)"><rect class="cls-1" width="841.89" height="595.28"/></clipPath></defs><g id="Layer_2" data-name="Layer 2"><g id="Layer_1-2" data-name="Layer 1"><polygon class="cls-2" points="41.55 16.06 41.55 27.79 22.42 27.79 22.42 54.89 6.22 54.89 6.22 2.93 22.07 2.93 22.07 16.06 41.55 16.06"/><rect class="cls-2" x="25.35" y="57.81" width="16.2" height="11.36"/><path class="cls-3" d="M296.6,260.58v27.1H280.41v-52h15.85v13.14h19.47v11.73ZM315.73,302h-16.2V290.6h16.2Zm-1-34.49,4-4V245.92H299.18V232.79h-21l-4,4v57H292V309h22.72l4-4V287.68H299.53V267.47Z" transform="translate(-274.18 -232.79)"/><g class="cls-4"><path class="cls-3" d="M368.83,263.09h9.46V268h.13a11.68,11.68,0,0,1,3.6-4.26,9.06,9.06,0,0,1,5.24-1.42c.54,0,1.09,0,1.64.06a8.5,8.5,0,0,1,1.51.25v8.65a13.32,13.32,0,0,0-2-.47,12.26,12.26,0,0,0-2.05-.16,10,10,0,0,0-4.29.76,5.71,5.71,0,0,0-2.43,2.11,7.92,7.92,0,0,0-1.1,3.25,31.39,31.39,0,0,0-.26,4.17v12.81h-9.46Z" transform="translate(-274.18 -232.79)"/><path class="cls-3" d="M410.48,280.32c-.71,0-1.61,0-2.68.09a14.27,14.27,0,0,0-3.09.54,7,7,0,0,0-2.53,1.33,3.07,3.07,0,0,0-1,2.46,2.71,2.71,0,0,0,1.45,2.52,6.05,6.05,0,0,0,3,.82,9.3,9.3,0,0,0,2.69-.38,8,8,0,0,0,2.3-1.07,5.16,5.16,0,0,0,1.61-1.77,5.05,5.05,0,0,0,.6-2.52v-2Zm2.34,9.59h-.13a9,9,0,0,1-4.19,3.54,14.56,14.56,0,0,1-5.53,1.07,14.18,14.18,0,0,1-4.13-.6,10.37,10.37,0,0,1-3.5-1.8,8.76,8.76,0,0,1-2.4-3,9.08,9.08,0,0,1-.89-4.11,9.45,9.45,0,0,1,1-4.48,8.79,8.79,0,0,1,2.65-3,13.18,13.18,0,0,1,3.82-1.86,28.16,28.16,0,0,1,4.45-1,42.13,42.13,0,0,1,4.61-.38q2.31-.06,4.26-.06a4.93,4.93,0,0,0-1.8-4,6.48,6.48,0,0,0-4.26-1.48,9.15,9.15,0,0,0-4.26,1,11.57,11.57,0,0,0-3.44,2.68L394,267.25a17.39,17.39,0,0,1,6.19-3.69,22.06,22.06,0,0,1,7.32-1.23,19.25,19.25,0,0,1,6.85,1,10,10,0,0,1,4.29,3.06,11.85,11.85,0,0,1,2.24,5,32.52,32.52,0,0,1,.63,6.78v15.59h-8.71Z" transform="translate(-274.18 -232.79)"/><path class="cls-3" d="M447.28,273a5.39,5.39,0,0,0-1.95-1.68,5.78,5.78,0,0,0-2.72-.66,7.22,7.22,0,0,0-5.58,2.15A8.92,8.92,0,0,0,437,284a7.22,7.22,0,0,0,5.58,2.15,5.16,5.16,0,0,0,2.72-.69,8,8,0,0,0,1.95-1.65l6.25,6.57a12.13,12.13,0,0,1-5.2,3.19,19.34,19.34,0,0,1-12.38-.22,15.86,15.86,0,0,1-5.42-3.26,15,15,0,0,1-3.63-5.08,17.17,17.17,0,0,1,0-13.25,15.13,15.13,0,0,1,3.63-5.08,15.84,15.84,0,0,1,5.42-3.25,19.34,19.34,0,0,1,6.66-1.14,20,20,0,0,1,5.72.91,12.23,12.23,0,0,1,5.2,3.19Z" transform="translate(-274.18 -232.79)"/><path class="cls-3" d="M477,275a5.51,5.51,0,0,0-1.57-4.1,5.61,5.61,0,0,0-4.23-1.7,6.83,6.83,0,0,0-4.83,1.8,5.6,5.6,0,0,0-1.33,1.83,6.3,6.3,0,0,0-.54,2.17Zm8,13.51a15.1,15.1,0,0,1-5.74,4.48,17.29,17.29,0,0,1-7.2,1.58,19.49,19.49,0,0,1-6.66-1.13,16.16,16.16,0,0,1-5.43-3.26,15.41,15.41,0,0,1-3.63-5.08,17.29,17.29,0,0,1,0-13.25,15.41,15.41,0,0,1,3.63-5.08,16,16,0,0,1,5.43-3.25,19.25,19.25,0,0,1,6.66-1.14,15,15,0,0,1,6,1.14,12.32,12.32,0,0,1,4.55,3.25,14.75,14.75,0,0,1,2.87,5.08,20.6,20.6,0,0,1,1,6.63v3h-22a7.51,7.51,0,0,0,2.47,4.33,7,7,0,0,0,4.67,1.61,7.06,7.06,0,0,0,3.94-1.05,10.35,10.35,0,0,0,2.81-2.68Z" transform="translate(-274.18 -232.79)"/><path class="cls-3" d="M517.12,282.66a5,5,0,0,1-1.54,1.64,6.14,6.14,0,0,1-2.12.88,10.72,10.72,0,0,1-2.3.25h-8.84V275.27h7.45a20.26,20.26,0,0,1,2.59.19,10.18,10.18,0,0,1,2.59.7,5,5,0,0,1,2,1.47,4,4,0,0,1,.79,2.57,4.77,4.77,0,0,1-.61,2.46m-14.8-25.25H509a12.65,12.65,0,0,1,2.33.22,7.35,7.35,0,0,1,2.15.72,4.19,4.19,0,0,1,1.54,1.42,4.13,4.13,0,0,1,.61,2.31,4.51,4.51,0,0,1-.55,2.27,4.21,4.21,0,0,1-1.41,1.52,6.48,6.48,0,0,1-2,.82,9.77,9.77,0,0,1-2.23.25h-7.14Zm24.56,19.88a10,10,0,0,0-2-3.32,10.75,10.75,0,0,0-3.09-2.33,12.07,12.07,0,0,0-2.29-.88,11,11,0,0,0,3.86-2.91,9.36,9.36,0,0,0,2.12-6.28A10.54,10.54,0,0,0,524,255.7a10.11,10.11,0,0,0-3.79-3.44,16,16,0,0,0-5.27-1.64,42.69,42.69,0,0,0-5.84-.41H492.48v43.55h18.3a29,29,0,0,0,6-.63,17.2,17.2,0,0,0,5.4-2.08,11.9,11.9,0,0,0,3.91-3.82,10.73,10.73,0,0,0,1.51-5.9,11.7,11.7,0,0,0-.69-4" transform="translate(-274.18 -232.79)"/></g><rect class="cls-3" x="257.18" y="30.3" width="9.47" height="30.68"/><g class="cls-4"><path class="cls-3" d="M567.71,270.66h-8.45v10.23a18,18,0,0,0,.13,2.3A4.59,4.59,0,0,0,560,285a2.92,2.92,0,0,0,1.36,1.17,6.08,6.08,0,0,0,2.43.41,15.46,15.46,0,0,0,2-.16,3.74,3.74,0,0,0,2-.73v7.89a14.85,14.85,0,0,1-3.4.76,29.45,29.45,0,0,1-3.35.19,18.42,18.42,0,0,1-4.41-.5,10.25,10.25,0,0,1-3.54-1.61,7.6,7.6,0,0,1-2.37-2.88,9.88,9.88,0,0,1-.85-4.29V270.66h-6.06v-7.57h6.06V254h9.47v9.09h8.45Z" transform="translate(-274.18 -232.79)"/></g><rect class="cls-2" x="88.95" y="17.42" width="8.89" height="8.71"/><rect class="cls-2" x="257.18" y="17.42" width="9.47" height="9.27"/><polygon class="cls-3" points="84.86 17.42 84.86 60.98 75.03 60.98 75.03 26.13 62.26 26.13 62.26 17.42 84.86 17.42"/></g></g></svg>